<svg width="33" height="32" viewBox="0 0 33 32" fill="none" xmlns="http://www.w3.org/2000/svg">
<g clip-path="url(#clip0_49_2)">
<path d="M16.0311 0C7.19046 0 0.0236969 7.16344 0.0236969 16C0.0236969 24.8366 7.19046 32 16.0311 32C24.8717 32 32.0385 24.8366 32.0385 16C32.0385 7.16344 24.8717 0 16.0311 0Z" fill="#CA353C"/>
<path d="M23.0515 17.5448H12.6699L14.9562 20.0444C15.6654 20.8824 15.2517 21.7585 14.9562 22.0918C14.415 22.7584 13.4554 22.433 13.0432 22.187L8.47066 17.3543C7.2762 16.2497 7.97297 15.1483 8.47066 14.7356L12.8566 9.90294C13.6778 9.19827 14.5052 9.60933 14.8162 9.90294C15.7121 10.7028 15.1895 11.7598 14.8162 12.1883L12.6699 14.4738H23.0515C23.9099 14.6832 24.2024 15.4974 24.2412 15.8783C24.3532 16.8496 23.4947 17.394 23.0515 17.5448Z" fill="white"/>
</g>
<defs>
<clipPath id="clip0_49_2">
<rect width="33" height="32" fill="white"/>
</clipPath>
</defs>
</svg>
